<mxfile host="app.diagrams.net" modified="2020-08-12T00:12:51.324Z" agent="5.0 (Windows NT 10.0; Win64; x64) AppleWebKit/537.36 (KHTML, like Gecko) Chrome/84.0.4147.105 Safari/537.36 Edg/84.0.522.52" etag="ajHRoqE0rmdUWGjw2vms" version="13.6.2" type="github">
  <diagram name="Page-1" id="55a83fd1-7818-8e21-69c5-c3457e3827bb">
    <mxGraphModel dx="1102" dy="544" grid="1" gridSize="10" guides="1" tooltips="1" connect="1" arrows="1" fold="1" page="1" pageScale="1" pageWidth="1100" pageHeight="850" background="#ffffff" math="0" shadow="0">
      <root>
        <mxCell id="0" />
        <mxCell id="1" parent="0" />
        <mxCell id="meUixTPC1rb_BbMNgjws-3" style="edgeStyle=orthogonalEdgeStyle;rounded=0;orthogonalLoop=1;jettySize=auto;html=1;" edge="1" parent="1" source="meUixTPC1rb_BbMNgjws-1" target="meUixTPC1rb_BbMNgjws-2">
          <mxGeometry relative="1" as="geometry" />
        </mxCell>
        <mxCell id="meUixTPC1rb_BbMNgjws-1" value="" style="shape=image;html=1;verticalAlign=top;verticalLabelPosition=bottom;labelBackgroundColor=#ffffff;imageAspect=0;aspect=fixed;image=https://cdn0.iconfinder.com/data/icons/simpline-mix/64/simpline_47-128.png" vertex="1" parent="1">
          <mxGeometry x="260" y="410" width="98" height="98" as="geometry" />
        </mxCell>
        <mxCell id="meUixTPC1rb_BbMNgjws-5" style="edgeStyle=orthogonalEdgeStyle;rounded=0;orthogonalLoop=1;jettySize=auto;html=1;" edge="1" parent="1" source="meUixTPC1rb_BbMNgjws-2" target="meUixTPC1rb_BbMNgjws-4">
          <mxGeometry relative="1" as="geometry" />
        </mxCell>
        <mxCell id="meUixTPC1rb_BbMNgjws-2" value="" style="shape=cylinder2;whiteSpace=wrap;html=1;boundedLbl=1;backgroundOutline=1;size=15;rotation=90;" vertex="1" parent="1">
          <mxGeometry x="460" y="360" width="60" height="460" as="geometry" />
        </mxCell>
        <mxCell id="meUixTPC1rb_BbMNgjws-4" value="" style="whiteSpace=wrap;html=1;aspect=fixed;" vertex="1" parent="1">
          <mxGeometry x="270" y="690" width="80" height="80" as="geometry" />
        </mxCell>
      </root>
    </mxGraphModel>
  </diagram>
</mxfile>
